<svg width="16" height="15" viewBox="0 0 16 15" fill="none" xmlns="http://www.w3.org/2000/svg">
<path d="M12.9345 10.2956C12.1579 9.37475 11.6095 8.906 11.6095 6.36743C11.6095 4.04272 10.3841 3.2145 9.37545 2.81226C9.24147 2.75894 9.11535 2.63647 9.07452 2.50317C8.8976 1.91987 8.4016 1.40601 7.74229 1.40601C7.08298 1.40601 6.58669 1.92017 6.41158 2.50376C6.37075 2.63853 6.24463 2.75894 6.11065 2.81226C5.10082 3.21509 3.87656 4.04038 3.87656 6.36743C3.87505 8.906 3.32673 9.37475 2.55008 10.2956C2.22829 10.677 2.51016 11.2498 3.07299 11.2498H12.4146C12.9744 11.2498 13.2545 10.6752 12.9345 10.2956Z" stroke="#409FF6" stroke-linecap="round" stroke-linejoin="round"/>
<path d="M9.67782 11.2493V11.718C9.67782 12.2153 9.47389 12.6922 9.1109 13.0438C8.7479 13.3955 8.25558 13.593 7.74223 13.593C7.22888 13.593 6.73655 13.3955 6.37356 13.0438C6.01057 12.6922 5.80664 12.2153 5.80664 11.718V11.2493" stroke="#409FF6" stroke-linecap="round" stroke-linejoin="round"/>
<ellipse cx="12.1875" cy="2.8125" rx="2.8125" ry="2.8125" fill="#FA6009" fill-opacity="0.9"/>
</svg>
