<svg width="18" height="18" viewBox="0 0 18 18" fill="none" xmlns="http://www.w3.org/2000/svg">
<path d="M4.53516 5.06348C5.46714 5.06348 6.22266 4.30796 6.22266 3.37598C6.22266 2.444 5.46714 1.68848 4.53516 1.68848C3.60318 1.68848 2.84766 2.444 2.84766 3.37598C2.84766 4.30796 3.60318 5.06348 4.53516 5.06348Z" fill="#E6E6E6" stroke="#E6E6E6" stroke-width="1.5" stroke-linecap="round" stroke-linejoin="round"/>
<path d="M4.53516 16.313C5.46714 16.313 6.22266 15.5575 6.22266 14.6255C6.22266 13.6935 5.46714 12.938 4.53516 12.938C3.60318 12.938 2.84766 13.6935 2.84766 14.6255C2.84766 15.5575 3.60318 16.313 4.53516 16.313Z" fill="#E6E6E6" stroke="#E6E6E6" stroke-width="1.5" stroke-linecap="round" stroke-linejoin="round"/>
<path d="M4.53516 5.06299V12.938" stroke="#E6E6E6" stroke-width="1.5" stroke-linecap="round" stroke-linejoin="round"/>
<path d="M13.5352 11.813C14.4671 11.813 15.2227 11.0575 15.2227 10.1255C15.2227 9.19351 14.4671 8.43799 13.5352 8.43799C12.6032 8.43799 11.8477 9.19351 11.8477 10.1255C11.8477 11.0575 12.6032 11.813 13.5352 11.813Z" fill="#E6E6E6" stroke="#E6E6E6" stroke-width="1.5" stroke-linecap="round" stroke-linejoin="round"/>
<path d="M4.53516 5.06299C4.53516 8.43799 8.47265 10.1255 11.8477 10.1255L4.53516 5.06299Z" fill="#E6E6E6"/>
<path d="M4.53516 5.06299C4.53516 8.43799 8.47265 10.1255 11.8477 10.1255" stroke="#E6E6E6" stroke-width="1.5" stroke-linecap="round" stroke-linejoin="round"/>
</svg>
