<svg width="24" height="24" viewBox="0 0 24 24" fill="none" xmlns="http://www.w3.org/2000/svg">
<path d="M8.25012 19.5005V22.5005" stroke="#7B3C20" stroke-width="1.5" stroke-linecap="round" stroke-linejoin="round"/>
<path d="M3.75015 1.50098H12.7502C13.148 1.50098 13.5295 1.65901 13.8108 1.94032C14.0921 2.22162 14.2501 2.60315 14.2501 3.00098V22.3135C14.2501 22.3632 14.2304 22.4109 14.1952 22.446C14.1601 22.4812 14.1124 22.501 14.0626 22.501H2.25015V3.00098C2.25015 2.60315 2.40819 2.22162 2.68949 1.94032C2.9708 1.65901 3.35233 1.50098 3.75015 1.50098V1.50098Z" stroke="#7B3C20" stroke-width="1.5" stroke-linecap="round" stroke-linejoin="round"/>
<path d="M15.0001 9.00098H20.2501C20.6479 9.00098 21.0294 9.15901 21.3107 9.44032C21.592 9.72162 21.7501 10.1032 21.7501 10.501V22.501H14.2501V9.75098C14.2501 9.55206 14.3291 9.3613 14.4697 9.22065C14.6104 9.07999 14.8011 9.00098 15.0001 9.00098Z" stroke="#7B3C20" stroke-width="1.5" stroke-linecap="round" stroke-linejoin="round"/>
<path d="M4.59754 20.2449C4.44221 20.2652 4.28441 20.2364 4.1463 20.1624C4.0082 20.0885 3.89671 19.9732 3.82748 19.8327C3.75825 19.6921 3.73477 19.5334 3.76032 19.3789C3.78587 19.2243 3.85917 19.0817 3.96995 18.9709C4.08072 18.8601 4.22339 18.7868 4.37795 18.7613C4.5325 18.7357 4.69118 18.7592 4.8317 18.8284C4.97223 18.8977 5.08756 19.0091 5.16149 19.1473C5.23542 19.2854 5.26426 19.4432 5.24394 19.5985C5.2225 19.7624 5.1475 19.9147 5.03061 20.0316C4.91371 20.1485 4.76146 20.2234 4.59754 20.2449Z" fill="#7B3C20"/>
<path d="M4.59754 16.4946C4.44221 16.515 4.28441 16.4861 4.1463 16.4122C4.0082 16.3383 3.89671 16.2229 3.82748 16.0824C3.75825 15.9419 3.73477 15.7832 3.76032 15.6286C3.78587 15.4741 3.85917 15.3314 3.96995 15.2206C4.08072 15.1099 4.22339 15.0366 4.37795 15.011C4.5325 14.9855 4.69118 15.009 4.8317 15.0782C4.97223 15.1474 5.08756 15.2589 5.16149 15.397C5.23542 15.5351 5.26426 15.6929 5.24394 15.8482C5.2225 16.0122 5.1475 16.1644 5.03061 16.2813C4.91371 16.3982 4.76146 16.4732 4.59754 16.4946Z" fill="#7B3C20"/>
<path d="M4.59754 12.7449C4.44221 12.7652 4.28441 12.7364 4.1463 12.6624C4.0082 12.5885 3.89671 12.4732 3.82748 12.3327C3.75825 12.1921 3.73477 12.0334 3.76032 11.8789C3.78587 11.7243 3.85917 11.5817 3.96995 11.4709C4.08072 11.3601 4.22339 11.2868 4.37795 11.2613C4.5325 11.2357 4.69118 11.2592 4.8317 11.3284C4.97223 11.3977 5.08756 11.5091 5.16149 11.6473C5.23542 11.7854 5.26426 11.9432 5.24394 12.0985C5.2225 12.2624 5.1475 12.4147 5.03061 12.5316C4.91371 12.6484 4.76146 12.7234 4.59754 12.7449Z" fill="#7B3C20"/>
<path d="M4.59754 8.99513C4.44221 9.01545 4.28441 8.98661 4.1463 8.91268C4.0082 8.83875 3.89671 8.72342 3.82748 8.58289C3.75825 8.44237 3.73477 8.28369 3.76032 8.12914C3.78587 7.97458 3.85917 7.83191 3.96995 7.72114C4.08072 7.61037 4.22339 7.53706 4.37795 7.51151C4.5325 7.48596 4.69118 7.50944 4.8317 7.57867C4.97223 7.6479 5.08756 7.75939 5.16149 7.89749C5.23542 8.0356 5.26426 8.1934 5.24394 8.34873C5.2225 8.51265 5.1475 8.6649 5.03061 8.78179C4.91371 8.89869 4.76146 8.97369 4.59754 8.99513Z" fill="#7B3C20"/>
<path d="M4.59754 5.2444C4.44221 5.26471 4.28441 5.23588 4.1463 5.16195C4.0082 5.08801 3.89671 4.97269 3.82748 4.83216C3.75825 4.69164 3.73477 4.53296 3.76032 4.3784C3.78587 4.22385 3.85917 4.08117 3.96995 3.9704C4.08072 3.85963 4.22339 3.78633 4.37795 3.76078C4.5325 3.73523 4.69118 3.75871 4.8317 3.82794C4.97223 3.89716 5.08756 4.00865 5.16149 4.14676C5.23542 4.28487 5.26426 4.44266 5.24394 4.59799C5.2225 4.76192 5.1475 4.91416 5.03061 5.03106C4.91371 5.14796 4.76146 5.22296 4.59754 5.2444Z" fill="#7B3C20"/>
<path d="M8.3475 16.4946C8.19217 16.515 8.03438 16.4861 7.89627 16.4122C7.75817 16.3383 7.64667 16.2229 7.57745 16.0824C7.50822 15.9419 7.48474 15.7832 7.51029 15.6286C7.53584 15.4741 7.60914 15.3314 7.71991 15.2206C7.83069 15.1099 7.97336 15.0366 8.12791 15.011C8.28247 14.9855 8.44115 15.009 8.58167 15.0782C8.7222 15.1474 8.83752 15.2589 8.91146 15.397C8.98539 15.5351 9.01423 15.6929 8.99391 15.8482C8.97247 16.0122 8.89747 16.1644 8.78057 16.2813C8.66368 16.3982 8.51143 16.4732 8.3475 16.4946Z" fill="#7B3C20"/>
<path d="M8.3475 12.7449C8.19217 12.7652 8.03438 12.7364 7.89627 12.6624C7.75817 12.5885 7.64667 12.4732 7.57745 12.3327C7.50822 12.1921 7.48474 12.0334 7.51029 11.8789C7.53584 11.7243 7.60914 11.5817 7.71991 11.4709C7.83069 11.3601 7.97336 11.2868 8.12791 11.2613C8.28247 11.2357 8.44115 11.2592 8.58167 11.3284C8.7222 11.3977 8.83752 11.5091 8.91146 11.6473C8.98539 11.7854 9.01423 11.9432 8.99391 12.0985C8.97247 12.2624 8.89747 12.4147 8.78057 12.5316C8.66368 12.6484 8.51143 12.7234 8.3475 12.7449Z" fill="#7B3C20"/>
<path d="M8.3475 8.99513C8.19217 9.01545 8.03438 8.98661 7.89627 8.91268C7.75817 8.83875 7.64667 8.72342 7.57745 8.58289C7.50822 8.44237 7.48474 8.28369 7.51029 8.12914C7.53584 7.97458 7.60914 7.83191 7.71991 7.72114C7.83069 7.61037 7.97336 7.53706 8.12791 7.51151C8.28247 7.48596 8.44115 7.50944 8.58167 7.57867C8.7222 7.6479 8.83752 7.75939 8.91146 7.89749C8.98539 8.0356 9.01423 8.1934 8.99391 8.34873C8.97247 8.51265 8.89747 8.6649 8.78057 8.78179C8.66368 8.89869 8.51143 8.97369 8.3475 8.99513Z" fill="#7B3C20"/>
<path d="M8.3475 5.2444C8.19217 5.26471 8.03438 5.23588 7.89627 5.16195C7.75817 5.08801 7.64667 4.97269 7.57745 4.83216C7.50822 4.69164 7.48474 4.53296 7.51029 4.3784C7.53584 4.22385 7.60914 4.08117 7.71991 3.9704C7.83069 3.85963 7.97336 3.78633 8.12791 3.76078C8.28247 3.73523 8.44115 3.75871 8.58167 3.82794C8.7222 3.89716 8.83752 4.00865 8.91146 4.14676C8.98539 4.28487 9.01423 4.44266 8.99391 4.59799C8.97247 4.76192 8.89747 4.91416 8.78057 5.03106C8.66368 5.14796 8.51143 5.22296 8.3475 5.2444Z" fill="#7B3C20"/>
<path d="M12.0976 20.2449C11.9423 20.2652 11.7845 20.2364 11.6464 20.1624C11.5083 20.0885 11.3968 19.9732 11.3275 19.8327C11.2583 19.6921 11.2348 19.5334 11.2604 19.3789C11.2859 19.2243 11.3592 19.0817 11.47 18.9709C11.5808 18.8601 11.7235 18.7868 11.878 18.7613C12.0326 18.7357 12.1912 18.7592 12.3318 18.8284C12.4723 18.8977 12.5876 19.0091 12.6616 19.1473C12.7355 19.2854 12.7643 19.4432 12.744 19.5985C12.7226 19.7624 12.6476 19.9147 12.5307 20.0316C12.4138 20.1485 12.2615 20.2234 12.0976 20.2449Z" fill="#7B3C20"/>
<path d="M12.0976 16.4946C11.9423 16.515 11.7845 16.4861 11.6464 16.4122C11.5083 16.3383 11.3968 16.2229 11.3275 16.0824C11.2583 15.9419 11.2348 15.7832 11.2604 15.6286C11.2859 15.4741 11.3592 15.3314 11.47 15.2206C11.5808 15.1099 11.7235 15.0366 11.878 15.011C12.0326 14.9855 12.1912 15.009 12.3318 15.0782C12.4723 15.1474 12.5876 15.2589 12.6616 15.397C12.7355 15.5351 12.7643 15.6929 12.744 15.8482C12.7226 16.0122 12.6476 16.1644 12.5307 16.2813C12.4138 16.3982 12.2615 16.4732 12.0976 16.4946Z" fill="#7B3C20"/>
<path d="M12.0976 12.7449C11.9423 12.7652 11.7845 12.7364 11.6464 12.6624C11.5083 12.5885 11.3968 12.4732 11.3275 12.3327C11.2583 12.1921 11.2348 12.0334 11.2604 11.8789C11.2859 11.7243 11.3592 11.5817 11.47 11.4709C11.5808 11.3601 11.7235 11.2868 11.878 11.2613C12.0326 11.2357 12.1912 11.2592 12.3318 11.3284C12.4723 11.3977 12.5876 11.5091 12.6616 11.6473C12.7355 11.7854 12.7643 11.9432 12.744 12.0985C12.7226 12.2624 12.6476 12.4147 12.5307 12.5316C12.4138 12.6484 12.2615 12.7234 12.0976 12.7449Z" fill="#7B3C20"/>
<path d="M12.5314 8.78153C12.8233 8.48956 12.8221 8.01498 12.5287 7.72154C12.2353 7.42809 11.7607 7.42691 11.4687 7.71889C11.1767 8.01086 11.1779 8.48544 11.4714 8.77888C11.7648 9.07232 12.2394 9.07351 12.5314 8.78153Z" fill="#7B3C20"/>
<path d="M12.0976 5.2444C11.9423 5.26471 11.7845 5.23588 11.6464 5.16195C11.5083 5.08801 11.3968 4.97269 11.3275 4.83216C11.2583 4.69164 11.2348 4.53296 11.2604 4.3784C11.2859 4.22385 11.3592 4.08117 11.47 3.9704C11.5808 3.85963 11.7235 3.78633 11.878 3.76078C12.0326 3.73523 12.1912 3.75871 12.3318 3.82794C12.4723 3.89716 12.5876 4.00865 12.6616 4.14676C12.7355 4.28487 12.7643 4.44266 12.744 4.59799C12.7226 4.76192 12.6476 4.91416 12.5307 5.03106C12.4138 5.14796 12.2615 5.22296 12.0976 5.2444Z" fill="#7B3C20"/>
<path d="M18.75 18.7507C18.6017 18.7507 18.4567 18.7947 18.3333 18.8771C18.21 18.9595 18.1139 19.0767 18.0571 19.2137C18.0003 19.3508 17.9855 19.5016 18.0144 19.6471C18.0434 19.7925 18.1148 19.9262 18.2197 20.0311C18.3246 20.136 18.4582 20.2074 18.6037 20.2363C18.7492 20.2653 18.9 20.2504 19.037 20.1936C19.1741 20.1369 19.2912 20.0407 19.3736 19.9174C19.456 19.7941 19.5 19.6491 19.5 19.5007C19.5 19.3018 19.421 19.1111 19.2803 18.9704C19.1397 18.8297 18.9489 18.7507 18.75 18.7507Z" fill="#7B3C20"/>
<path d="M18.75 15.001C18.6017 15.001 18.4567 15.045 18.3333 15.1274C18.21 15.2098 18.1139 15.3269 18.0571 15.464C18.0003 15.601 17.9855 15.7518 18.0144 15.8973C18.0434 16.0428 18.1148 16.1764 18.2197 16.2813C18.3246 16.3862 18.4582 16.4576 18.6037 16.4866C18.7492 16.5155 18.9 16.5007 19.037 16.4439C19.1741 16.3871 19.2912 16.291 19.3736 16.1677C19.456 16.0443 19.5 15.8993 19.5 15.751C19.5 15.5521 19.421 15.3613 19.2803 15.2206C19.1397 15.08 18.9489 15.001 18.75 15.001Z" fill="#7B3C20"/>
<path d="M18.75 11.2507C18.6017 11.2507 18.4567 11.2947 18.3333 11.3771C18.21 11.4595 18.1139 11.5767 18.0571 11.7137C18.0003 11.8508 17.9855 12.0016 18.0144 12.1471C18.0434 12.2925 18.1148 12.4262 18.2197 12.5311C18.3246 12.636 18.4582 12.7074 18.6037 12.7363C18.7492 12.7653 18.9 12.7504 19.037 12.6936C19.1741 12.6369 19.2912 12.5407 19.3736 12.4174C19.456 12.2941 19.5 12.1491 19.5 12.0007C19.5 11.8018 19.421 11.6111 19.2803 11.4704C19.1397 11.3298 18.9489 11.2507 18.75 11.2507Z" fill="#7B3C20"/>
<path d="M15.7501 18.7507C15.6017 18.7507 15.4567 18.7947 15.3334 18.8771C15.21 18.9595 15.1139 19.0767 15.0572 19.2137C15.0004 19.3508 14.9855 19.5016 15.0145 19.6471C15.0434 19.7925 15.1148 19.9262 15.2197 20.0311C15.3246 20.136 15.4583 20.2074 15.6037 20.2363C15.7492 20.2653 15.9 20.2504 16.0371 20.1936C16.1741 20.1369 16.2913 20.0407 16.3737 19.9174C16.4561 19.7941 16.5001 19.6491 16.5001 19.5007C16.5001 19.3018 16.421 19.1111 16.2804 18.9704C16.1397 18.8297 15.949 18.7507 15.7501 18.7507Z" fill="#7B3C20"/>
<path d="M15.7501 15.001C15.6017 15.001 15.4567 15.045 15.3334 15.1274C15.21 15.2098 15.1139 15.3269 15.0572 15.464C15.0004 15.601 14.9855 15.7518 15.0145 15.8973C15.0434 16.0428 15.1148 16.1764 15.2197 16.2813C15.3246 16.3862 15.4583 16.4576 15.6037 16.4866C15.7492 16.5155 15.9 16.5007 16.0371 16.4439C16.1741 16.3871 16.2913 16.291 16.3737 16.1677C16.4561 16.0443 16.5001 15.8993 16.5001 15.751C16.5001 15.5521 16.421 15.3613 16.2804 15.2206C16.1397 15.08 15.949 15.001 15.7501 15.001Z" fill="#7B3C20"/>
<path d="M15.7501 11.2507C15.6017 11.2507 15.4567 11.2947 15.3334 11.3771C15.21 11.4595 15.1139 11.5767 15.0572 11.7137C15.0004 11.8508 14.9855 12.0016 15.0145 12.1471C15.0434 12.2925 15.1148 12.4262 15.2197 12.5311C15.3246 12.636 15.4583 12.7074 15.6037 12.7363C15.7492 12.7653 15.9 12.7504 16.0371 12.6936C16.1741 12.6369 16.2913 12.5407 16.3737 12.4174C16.4561 12.2941 16.5001 12.1491 16.5001 12.0007C16.5001 11.8018 16.421 11.6111 16.2804 11.4704C16.1397 11.3298 15.949 11.2507 15.7501 11.2507Z" fill="#7B3C20"/>
</svg>
