<svg width="18" height="18" viewBox="0 0 18 18" fill="none" xmlns="http://www.w3.org/2000/svg">
<g clip-path="url(#clip0_1310_21769)">
<path d="M5.625 11.8135V1.68848L6.75 2.25098L7.875 1.68848L8.99789 2.25098L10.1359 1.68848L11.25 2.25098L12.3676 1.68848L13.4902 2.25098L14.625 1.68848L15.7503 2.25098L16.875 1.68848V9.56347" fill="#E6E6E6"/>
<path d="M5.625 11.8135V1.68848L6.75 2.25098L7.875 1.68848L8.99789 2.25098L10.1359 1.68848L11.25 2.25098L12.3676 1.68848L13.4902 2.25098L14.625 1.68848L15.7503 2.25098L16.875 1.68848V9.56347" stroke="#E6E6E6" stroke-width="1.5" stroke-linejoin="round"/>
<path d="M16.875 9.56396V13.5015C16.875 14.2474 16.5787 14.9628 16.0513 15.4902C15.5238 16.0176 14.8084 16.314 14.0625 16.314C13.3166 16.314 12.6012 16.0176 12.0738 15.4902C11.5463 14.9628 11.25 14.2474 11.25 13.5015V11.814H1.68752C1.61347 11.8133 1.54003 11.8274 1.47149 11.8554C1.40295 11.8835 1.34068 11.9249 1.28831 11.9773C1.23595 12.0296 1.19454 12.0919 1.1665 12.1604C1.13847 12.229 1.12437 12.3024 1.12502 12.3765C1.12502 14.6265 1.36198 16.314 3.93752 16.314H14.0625" fill="#E6E6E6"/>
<path d="M16.875 9.56396V13.5015C16.875 14.2474 16.5787 14.9628 16.0513 15.4902C15.5238 16.0176 14.8084 16.314 14.0625 16.314V16.314C13.3166 16.314 12.6012 16.0176 12.0738 15.4902C11.5463 14.9628 11.25 14.2474 11.25 13.5015V11.814H1.68752C1.61347 11.8133 1.54003 11.8274 1.47149 11.8554C1.40295 11.8835 1.34068 11.9249 1.28831 11.9773C1.23595 12.0296 1.19454 12.0919 1.1665 12.1604C1.13847 12.229 1.12437 12.3024 1.12502 12.3765C1.12502 14.6265 1.36198 16.314 3.93752 16.314H14.0625" stroke="#E6E6E6" stroke-width="1.5" stroke-linejoin="round"/>
<path d="M7.875 5.06348H14.625" stroke="#E6E6E6" stroke-width="1.5" stroke-linecap="round" stroke-linejoin="round"/>
<path d="M10.125 7.87549H14.625" stroke="#E6E6E6" stroke-width="1.5" stroke-linecap="round" stroke-linejoin="round"/>
</g>
<defs>
<clipPath id="clip0_1310_21769">
<rect width="18" height="18" fill="white"/>
</clipPath>
</defs>
</svg>
