<svg width="18" height="16" viewBox="0 0 18 16" fill="none" xmlns="http://www.w3.org/2000/svg">
<path d="M9.00049 1.25049C4.65167 1.25049 1.1255 4.77314 1.1255 9.12197C1.12283 11.046 1.82723 12.904 3.10479 14.3427C3.14346 14.3849 3.17862 14.427 3.21729 14.4657C3.30049 14.5558 3.40148 14.6276 3.51387 14.6766C3.62626 14.7256 3.7476 14.7507 3.87021 14.7504C3.99282 14.7501 4.11403 14.7243 4.22615 14.6747C4.33828 14.6251 4.43888 14.5527 4.52159 14.4622C5.09165 13.8427 5.78403 13.3482 6.55496 13.0099C7.32589 12.6717 8.15862 12.497 9.00049 12.497C9.84237 12.497 10.6751 12.6717 11.446 13.0099C12.217 13.3482 12.9093 13.8427 13.4794 14.4622C13.5621 14.5527 13.6627 14.6251 13.7748 14.6747C13.887 14.7243 14.0082 14.7501 14.1308 14.7504C14.2534 14.7507 14.3747 14.7256 14.4871 14.6766C14.5995 14.6276 14.7005 14.5558 14.7837 14.4657L14.8962 14.3427C16.1738 12.904 16.8782 11.046 16.8755 9.12197C16.8755 4.77314 13.3493 1.25049 9.00049 1.25049Z" fill="#E6E6E6" stroke="white" stroke-opacity="0.5" stroke-width="1.5" stroke-linecap="round" stroke-linejoin="round"/>
</svg>
