<svg width="24" height="24" viewBox="0 0 24 24" fill="none" xmlns="http://www.w3.org/2000/svg">
<path d="M20.2498 20.9996C20.1513 20.9998 20.0538 20.9804 19.9628 20.9427C19.8718 20.9049 19.7892 20.8496 19.7197 20.7798L3.21969 4.27976C3.08498 4.13796 3.01099 3.94915 3.01349 3.75358C3.01599 3.55801 3.0948 3.37115 3.2331 3.23285C3.3714 3.09455 3.55825 3.01575 3.75383 3.01325C3.9494 3.01074 4.13821 3.08473 4.28001 3.21945L20.78 19.7194C20.8848 19.8243 20.9562 19.9579 20.9851 20.1034C21.014 20.2488 20.9992 20.3996 20.9424 20.5366C20.8857 20.6736 20.7896 20.7907 20.6663 20.8731C20.5431 20.9555 20.3981 20.9995 20.2498 20.9996Z" fill="black" fill-opacity="0.4"/>
<path d="M11.984 17.9992C10.0392 17.9992 8.16371 17.4235 6.40964 16.2882C4.81261 15.257 3.37496 13.78 2.25183 12.0226V12.0189C3.18652 10.6796 4.21027 9.54715 5.30996 8.63402C5.3199 8.6257 5.32802 8.61541 5.33379 8.6038C5.33956 8.59219 5.34285 8.57951 5.34347 8.56655C5.34409 8.5536 5.34201 8.54066 5.33737 8.52855C5.33273 8.51645 5.32563 8.50543 5.31652 8.49621L4.38277 7.56386C4.36618 7.54714 4.34389 7.53727 4.32035 7.53622C4.29681 7.53518 4.27374 7.54304 4.25574 7.55824C3.08761 8.54261 2.0034 9.75011 1.01761 11.1639C0.848014 11.4073 0.754608 11.6956 0.749266 11.9923C0.743924 12.2889 0.826888 12.5804 0.987614 12.8298C2.22558 14.7671 3.81886 16.3989 5.59449 17.5478C7.59371 18.8429 9.74527 19.4992 11.984 19.4992C13.1924 19.4954 14.3923 19.2963 15.5371 18.9095C15.5522 18.9044 15.5658 18.8955 15.5765 18.8837C15.5872 18.8718 15.5947 18.8575 15.5983 18.8419C15.602 18.8264 15.6015 18.8102 15.5971 18.7949C15.5928 18.7795 15.5845 18.7656 15.5732 18.7543L14.5617 17.7428C14.5384 17.72 14.5096 17.7038 14.4781 17.6956C14.4466 17.6873 14.4136 17.6875 14.3821 17.6959C13.5987 17.8976 12.793 17.9995 11.984 17.9992Z" fill="black" fill-opacity="0.4"/>
<path d="M23.0081 11.1829C21.7678 9.26478 20.1586 7.63541 18.3548 6.47057C16.3594 5.18057 14.1562 4.49854 11.9841 4.49854C10.7884 4.50066 9.60172 4.70396 8.47358 5.09994C8.45855 5.10517 8.4451 5.11414 8.4345 5.12601C8.42389 5.13787 8.41648 5.15224 8.41296 5.16777C8.40945 5.18329 8.40994 5.19945 8.41439 5.21473C8.41885 5.23001 8.42712 5.2439 8.43843 5.2551L9.44858 6.26525C9.4721 6.28837 9.5013 6.30488 9.53323 6.31311C9.56516 6.32134 9.5987 6.321 9.63046 6.31213C10.3978 6.10456 11.1891 5.99911 11.9841 5.99853C13.8914 5.99853 15.7612 6.58119 17.5411 7.73291C19.1681 8.78291 20.6226 10.2585 21.7486 11.9985C21.7494 11.9996 21.7499 12.0009 21.7499 12.0023C21.7499 12.0036 21.7494 12.005 21.7486 12.006C20.9313 13.2927 19.9171 14.4431 18.743 15.4152C18.7329 15.4235 18.7247 15.4338 18.7188 15.4455C18.713 15.4571 18.7096 15.4698 18.7089 15.4828C18.7083 15.4958 18.7103 15.5089 18.715 15.521C18.7196 15.5332 18.7268 15.5443 18.7359 15.5535L19.6687 16.4859C19.6852 16.5025 19.7074 16.5124 19.7308 16.5135C19.7543 16.5147 19.7773 16.507 19.7953 16.492C21.0487 15.4366 22.1337 14.196 23.0128 12.8132C23.1682 12.5695 23.2503 12.2864 23.2495 11.9974C23.2487 11.7084 23.1649 11.4257 23.0081 11.1829Z" fill="black" fill-opacity="0.4"/>
<path d="M11.9997 7.49829C11.6627 7.49811 11.3267 7.53585 10.998 7.61079C10.9814 7.61424 10.9661 7.62212 10.9536 7.6336C10.9411 7.64508 10.932 7.65973 10.9272 7.67599C10.9224 7.69224 10.9221 7.7095 10.9263 7.72592C10.9305 7.74234 10.9391 7.75731 10.9512 7.76923L16.2288 13.0455C16.2407 13.0575 16.2557 13.0661 16.2721 13.0703C16.2885 13.0746 16.3058 13.0742 16.3221 13.0694C16.3383 13.0646 16.353 13.0555 16.3644 13.043C16.3759 13.0306 16.3838 13.0152 16.3872 12.9986C16.5375 12.3396 16.5374 11.6551 16.3868 10.9962C16.2363 10.3372 15.9392 9.72057 15.5177 9.19214C15.0962 8.66371 14.5611 8.23703 13.952 7.94379C13.343 7.65055 12.6757 7.49828 11.9997 7.49829Z" fill="black" fill-opacity="0.4"/>
<path d="M7.77091 10.9524C7.75899 10.9403 7.74402 10.9317 7.7276 10.9275C7.71118 10.9233 7.69392 10.9236 7.67767 10.9284C7.66141 10.9332 7.64676 10.9423 7.63528 10.9548C7.6238 10.9673 7.61592 10.9827 7.61247 10.9993C7.44248 11.7419 7.46382 12.5156 7.67451 13.2477C7.88519 13.9799 8.27832 14.6466 8.81704 15.1853C9.35577 15.724 10.0224 16.1172 10.7546 16.3278C11.4868 16.5385 12.2604 16.5599 13.0031 16.3899C13.0197 16.3864 13.035 16.3785 13.0475 16.3671C13.06 16.3556 13.0691 16.3409 13.0739 16.3247C13.0787 16.3084 13.0791 16.2912 13.0748 16.2747C13.0706 16.2583 13.062 16.2434 13.05 16.2314L7.77091 10.9524Z" fill="black" fill-opacity="0.4"/>
</svg>
