<svg width="18" height="18" viewBox="0 0 18 18" fill="none" xmlns="http://www.w3.org/2000/svg">
<g clip-path="url(#clip0_1310_21763)">
<path d="M1.6875 11.8135V15.1885C1.6888 15.6356 1.86701 16.0641 2.18319 16.3803C2.49938 16.6965 2.92785 16.8747 3.375 16.876H14.625C15.0722 16.8747 15.5006 16.6965 15.8168 16.3803C16.133 16.0641 16.3112 15.6356 16.3125 15.1885V11.8135" fill="#E6E6E6"/>
<path d="M1.6875 11.8135V15.1885C1.6888 15.6356 1.86701 16.0641 2.18319 16.3803C2.49938 16.6965 2.92785 16.8747 3.375 16.876H14.625C15.0722 16.8747 15.5006 16.6965 15.8168 16.3803C16.133 16.0641 16.3112 15.6356 16.3125 15.1885V11.8135" stroke="#E6E6E6" stroke-width="1.5" stroke-linejoin="round"/>
<path d="M1.6875 11.8135H6.75" stroke="#E6E6E6" stroke-width="1.5" stroke-linecap="round" stroke-linejoin="round"/>
<path d="M11.25 11.8135H16.3125" stroke="#E6E6E6" stroke-width="1.5" stroke-linecap="round" stroke-linejoin="round"/>
<path d="M6.75 11.8135C6.75 12.4102 6.98705 12.9825 7.40901 13.4045C7.83097 13.8264 8.40326 14.0635 9 14.0635C9.59674 14.0635 10.169 13.8264 10.591 13.4045C11.0129 12.9825 11.25 12.4102 11.25 11.8135" fill="#E6E6E6"/>
<path d="M6.75 11.8135C6.75 12.4102 6.98705 12.9825 7.40901 13.4045C7.83097 13.8264 8.40326 14.0635 9 14.0635C9.59674 14.0635 10.169 13.8264 10.591 13.4045C11.0129 12.9825 11.25 12.4102 11.25 11.8135" stroke="#E6E6E6" stroke-width="1.5" stroke-linecap="round" stroke-linejoin="round"/>
<path d="M13.5 1.125H4.5C3.58594 1.125 2.98828 1.61719 2.8125 2.53125L1.6875 6.75V10.125C1.6888 10.5722 1.86701 11.0006 2.18319 11.3168C2.49938 11.633 2.92785 11.8112 3.375 11.8125H14.625C15.0722 11.8112 15.5006 11.633 15.8168 11.3168C16.133 11.0006 16.3112 10.5722 16.3125 10.125V6.75L15.1875 2.53125C15.0117 1.58203 14.3789 1.125 13.5 1.125Z" fill="#E6E6E6" stroke="#E6E6E6" stroke-width="1.5" stroke-linejoin="round"/>
<path d="M1.6875 6.75098H6.75" stroke="#E6E6E6" stroke-width="1.5" stroke-linecap="round" stroke-linejoin="round"/>
<path d="M11.25 6.75098H16.3125" stroke="#E6E6E6" stroke-width="1.5" stroke-linecap="round" stroke-linejoin="round"/>
<path d="M6.75 6.75098C6.75 7.34771 6.98705 7.92001 7.40901 8.34197C7.83097 8.76392 8.40326 9.00098 9 9.00098C9.59674 9.00098 10.169 8.76392 10.591 8.34197C11.0129 7.92001 11.25 7.34771 11.25 6.75098" fill="#E6E6E6"/>
<path d="M6.75 6.75098C6.75 7.34771 6.98705 7.92001 7.40901 8.34197C7.83097 8.76392 8.40326 9.00098 9 9.00098C9.59674 9.00098 10.169 8.76392 10.591 8.34197C11.0129 7.92001 11.25 7.34771 11.25 6.75098" stroke="#E6E6E6" stroke-width="1.5" stroke-linecap="round" stroke-linejoin="round"/>
</g>
<defs>
<clipPath id="clip0_1310_21763">
<rect width="18" height="18" fill="white"/>
</clipPath>
</defs>
</svg>
