<svg width="18" height="18" viewBox="0 0 18 18" fill="none" xmlns="http://www.w3.org/2000/svg">
<g clip-path="url(#clip0_1310_21788)">
<path d="M13.2189 5.0625C13.0811 6.92121 11.672 8.4375 10.1251 8.4375C8.57827 8.4375 7.16675 6.92156 7.0314 5.0625C6.89078 3.12891 8.26187 1.6875 10.1251 1.6875C11.9884 1.6875 13.3595 3.16406 13.2189 5.0625Z" fill="#E6E6E6" stroke="white" stroke-width="1.5" stroke-linecap="round" stroke-linejoin="round"/>
<path d="M10.1249 10.6875C7.0663 10.6875 3.96201 12.375 3.38755 15.5602C3.31724 15.9441 3.53556 16.3125 3.93775 16.3125H16.3124C16.7146 16.3125 16.9319 15.9441 16.8626 15.5602C16.2878 12.375 13.1835 10.6875 10.1249 10.6875Z" fill="#E6E6E6" stroke="white" stroke-width="1.5" stroke-miterlimit="10"/>
<path d="M3.09375 6.18701V10.1245" stroke="white" stroke-width="1.5" stroke-linecap="round" stroke-linejoin="round"/>
<path d="M5.0625 8.15576H1.125" stroke="white" stroke-width="1.5" stroke-linecap="round" stroke-linejoin="round"/>
</g>
<defs>
<clipPath id="clip0_1310_21788">
<rect width="18" height="18" fill="white"/>
</clipPath>
</defs>
</svg>
