<svg width="18" height="18" viewBox="0 0 18 18" fill="none" xmlns="http://www.w3.org/2000/svg">
<path d="M5.625 5.06348C6.55698 5.06348 7.3125 4.30796 7.3125 3.37598C7.3125 2.444 6.55698 1.68848 5.625 1.68848C4.69302 1.68848 3.9375 2.444 3.9375 3.37598C3.9375 4.30796 4.69302 5.06348 5.625 5.06348Z" fill="#E6E6E6" stroke="#E6E6E6" stroke-width="1.5" stroke-linecap="round" stroke-linejoin="round"/>
<path d="M5.625 16.313C6.55698 16.313 7.3125 15.5575 7.3125 14.6255C7.3125 13.6935 6.55698 12.938 5.625 12.938C4.69302 12.938 3.9375 13.6935 3.9375 14.6255C3.9375 15.5575 4.69302 16.313 5.625 16.313Z" fill="#E6E6E6" stroke="#E6E6E6" stroke-width="1.5" stroke-linecap="round" stroke-linejoin="round"/>
<path d="M5.625 12.938V5.06299" stroke="#E6E6E6" stroke-width="1.5" stroke-linecap="round" stroke-linejoin="round"/>
<path d="M12.375 7.3125C13.307 7.3125 14.0625 6.55698 14.0625 5.625C14.0625 4.69302 13.307 3.9375 12.375 3.9375C11.443 3.9375 10.6875 4.69302 10.6875 5.625C10.6875 6.55698 11.443 7.3125 12.375 7.3125Z" fill="#E6E6E6" stroke="#E6E6E6" stroke-width="1.5" stroke-linecap="round" stroke-linejoin="round"/>
<path d="M12.375 7.31299C12.375 11.813 5.625 9.00049 5.625 12.938L12.375 7.31299Z" fill="#E6E6E6"/>
<path d="M12.375 7.31299C12.375 11.813 5.625 9.00049 5.625 12.938" stroke="#E6E6E6" stroke-width="1.5" stroke-linecap="round" stroke-linejoin="round"/>
</svg>
