<svg width="20" height="20" viewBox="0 0 20 20" fill="none" xmlns="http://www.w3.org/2000/svg">
<path d="M19.375 6.875C19.3743 6.21218 19.1106 5.57672 18.642 5.10803C18.1733 4.63935 17.5378 4.37572 16.875 4.375H15V3.75C14.9995 3.25288 14.8018 2.77626 14.4503 2.42475C14.0987 2.07323 13.6221 1.87552 13.125 1.875H6.875C6.37788 1.87552 5.90126 2.07323 5.54974 2.42475C5.19823 2.77626 5.00052 3.25288 5 3.75V4.375H3.125C2.46218 4.37572 1.82672 4.63935 1.35803 5.10803C0.889348 5.57672 0.625724 6.21218 0.625 6.875V8.75H19.375V6.875ZM13.75 4.375H6.25V3.75C6.25 3.58424 6.31585 3.42527 6.43306 3.30806C6.55027 3.19085 6.70924 3.125 6.875 3.125H13.125C13.2908 3.125 13.4497 3.19085 13.5669 3.30806C13.6841 3.42527 13.75 3.58424 13.75 3.75V4.375Z" fill="#FA6009" fill-opacity="0.9"/>
<path d="M13.125 10.3127C13.125 10.5614 13.0262 10.7998 12.8504 10.9757C12.6746 11.1515 12.4361 11.2502 12.1875 11.2502H7.8125C7.56386 11.2502 7.3254 11.1515 7.14959 10.9757C6.97377 10.7998 6.875 10.5614 6.875 10.3127V10.1565C6.875 10.1151 6.85854 10.0753 6.82923 10.046C6.79993 10.0167 6.76019 10.0002 6.71875 10.0002H0.625V15.6252C0.625 16.2883 0.888392 16.9242 1.35723 17.393C1.82607 17.8618 2.46196 18.1252 3.125 18.1252H16.875C17.538 18.1252 18.1739 17.8618 18.6428 17.393C19.1116 16.9242 19.375 16.2883 19.375 15.6252V10.0002H13.2812C13.2398 10.0002 13.2001 10.0167 13.1708 10.046C13.1415 10.0753 13.125 10.1151 13.125 10.1565V10.3127Z" fill="#FA6009" fill-opacity="0.9"/>
</svg>
