<svg width="18" height="18" viewBox="0 0 18 18" fill="none" xmlns="http://www.w3.org/2000/svg">
<path d="M4.5 5.0625C5.43198 5.0625 6.1875 4.30698 6.1875 3.375C6.1875 2.44302 5.43198 1.6875 4.5 1.6875C3.56802 1.6875 2.8125 2.44302 2.8125 3.375C2.8125 4.30698 3.56802 5.0625 4.5 5.0625Z" fill="#E6E6E6" stroke="#E6E6E6" stroke-width="1.5" stroke-linecap="round" stroke-linejoin="round"/>
<path d="M9 16.313C9.93198 16.313 10.6875 15.5575 10.6875 14.6255C10.6875 13.6935 9.93198 12.938 9 12.938C8.06802 12.938 7.3125 13.6935 7.3125 14.6255C7.3125 15.5575 8.06802 16.313 9 16.313Z" fill="#E6E6E6" stroke="#E6E6E6" stroke-width="1.5" stroke-linecap="round" stroke-linejoin="round"/>
<path d="M9 9V12.9375" stroke="#E6E6E6" stroke-width="1.5" stroke-linecap="round" stroke-linejoin="round"/>
<path d="M13.5 5.0625C14.432 5.0625 15.1875 4.30698 15.1875 3.375C15.1875 2.44302 14.432 1.6875 13.5 1.6875C12.568 1.6875 11.8125 2.44302 11.8125 3.375C11.8125 4.30698 12.568 5.0625 13.5 5.0625Z" fill="#E6E6E6" stroke="#E6E6E6" stroke-width="1.5" stroke-linecap="round" stroke-linejoin="round"/>
<path d="M4.5 5.06201C4.5 7.68713 6.92297 8.99951 9 8.99951L4.5 5.06201Z" fill="#E6E6E6"/>
<path d="M4.5 5.06201C4.5 7.68713 6.92297 8.99951 9 8.99951" stroke="#E6E6E6" stroke-width="1.5" stroke-linecap="round" stroke-linejoin="round"/>
<path d="M13.5 5.06201C13.5 7.68713 11.077 8.99951 9 8.99951L13.5 5.06201Z" fill="#E6E6E6"/>
<path d="M13.5 5.06201C13.5 7.68713 11.077 8.99951 9 8.99951" stroke="#E6E6E6" stroke-width="1.5" stroke-linecap="round" stroke-linejoin="round"/>
</svg>
