<svg width="24" height="24" viewBox="0 0 24 24" fill="none" xmlns="http://www.w3.org/2000/svg">
<path d="M21 12C21 7.03125 16.9687 3 12 3C7.03125 3 3 7.03125 3 12C3 16.9687 7.03125 21 12 21C16.9687 21 21 16.9687 21 12Z" stroke="#D92027" stroke-width="1.5" stroke-miterlimit="10"/>
<path d="M11.731 7.78395L12.0001 13.5004L12.2686 7.78395C12.2703 7.7474 12.2645 7.71091 12.2516 7.67668C12.2386 7.64246 12.2189 7.61123 12.1935 7.58491C12.1681 7.55859 12.1376 7.53772 12.1038 7.52358C12.0701 7.50945 12.0338 7.50234 11.9972 7.5027V7.5027C11.9611 7.50304 11.9254 7.51066 11.8923 7.5251C11.8591 7.53955 11.8292 7.56052 11.8044 7.58677C11.7795 7.61302 11.7602 7.64401 11.7476 7.67789C11.735 7.71177 11.7294 7.74784 11.731 7.78395V7.78395Z" stroke="#D92027" stroke-width="1.5" stroke-linecap="round" stroke-linejoin="round"/>
<path d="M12 17.2456C11.8146 17.2456 11.6333 17.1906 11.4792 17.0876C11.325 16.9846 11.2048 16.8382 11.1339 16.6669C11.0629 16.4956 11.0443 16.3071 11.0805 16.1252C11.1167 15.9434 11.206 15.7763 11.3371 15.6452C11.4682 15.5141 11.6352 15.4248 11.8171 15.3886C11.999 15.3524 12.1875 15.371 12.3588 15.442C12.5301 15.5129 12.6765 15.6331 12.7795 15.7873C12.8825 15.9414 12.9375 16.1227 12.9375 16.3081C12.9375 16.5567 12.8387 16.7952 12.6629 16.971C12.4871 17.1468 12.2486 17.2456 12 17.2456Z" fill="#D92027"/>
</svg>
