<svg width="17" height="16" viewBox="0 0 17 16" fill="none" xmlns="http://www.w3.org/2000/svg">
<path d="M7.57288 2.00049C6.60196 2.00049 5.65284 2.2884 4.84555 2.82781C4.03826 3.36723 3.40906 4.13392 3.0375 5.03093C2.66595 5.92795 2.56873 6.91499 2.75815 7.86726C2.94756 8.81952 3.41511 9.69423 4.10165 10.3808C4.7882 11.0673 5.66291 11.5349 6.61517 11.7243C7.56744 11.9137 8.55448 11.8165 9.4515 11.4449C10.3485 11.0734 11.1152 10.4442 11.6546 9.63688C12.194 8.82959 12.4819 7.88047 12.4819 6.90955C12.4819 5.60761 11.9646 4.35902 11.044 3.43841C10.1234 2.5178 8.87482 2.00057 7.57288 2.00049V2.00049Z" stroke="#0B1320" stroke-opacity="0.4" stroke-width="1.5" stroke-miterlimit="10"/>
<path d="M11.2354 10.5715L14.6638 14" stroke="#0B1320" stroke-opacity="0.4" stroke-width="1.5" stroke-miterlimit="10" stroke-linecap="round"/>
</svg>
