<svg width="18" height="18" viewBox="0 0 18 18" fill="none" xmlns="http://www.w3.org/2000/svg">
<path d="M15.2858 4.83926L10.0349 2.44512C9.46572 2.18496 8.53408 2.18496 7.9649 2.44512L2.71748 4.83926C2.09873 5.12051 2.09873 5.5807 2.71748 5.86195L7.9206 8.235C8.51439 8.5057 9.49173 8.5057 10.0855 8.235L15.2886 5.86195C15.9046 5.5807 15.9046 5.12016 15.2858 4.83926Z" fill="#E6E6E6" stroke="#E6E6E6" stroke-width="1.5" stroke-linecap="round" stroke-linejoin="round"/>
<path d="M5.6249 10.8452L2.71748 12.1498C2.09873 12.4311 2.09873 12.8916 2.71748 13.1729L7.9206 15.5459C8.51439 15.8163 9.49174 15.8163 10.0855 15.5459L15.2886 13.1729C15.9074 12.8916 15.9074 12.4311 15.2886 12.1498L12.4783 10.7974" fill="#E6E6E6"/>
<path d="M5.6249 10.8452L2.71748 12.1498C2.09873 12.4311 2.09873 12.8916 2.71748 13.1729L7.9206 15.5459C8.51439 15.8163 9.49174 15.8163 10.0855 15.5459L15.2886 13.1729C15.9074 12.8916 15.9074 12.4311 15.2886 12.1498L12.4783 10.7974" stroke="#E6E6E6" stroke-width="1.5" stroke-linecap="round" stroke-linejoin="round"/>
<path d="M5.625 7.18848L2.71406 8.49488C2.09531 8.77613 2.09531 9.23668 2.71406 9.51793L7.91719 11.8906C8.51097 12.1613 9.48832 12.1613 10.0821 11.8906L15.2852 9.51793C15.9075 9.23668 15.9075 8.77613 15.2887 8.49488L12.375 7.18848" fill="#E6E6E6"/>
<path d="M5.625 7.18848L2.71406 8.49488C2.09531 8.77613 2.09531 9.23668 2.71406 9.51793L7.91719 11.8906C8.51098 12.1613 9.48832 12.1613 10.0821 11.8906L15.2852 9.51793C15.9075 9.23668 15.9075 8.77613 15.2887 8.49488L12.375 7.18848" stroke="#E6E6E6" stroke-width="1.5" stroke-linecap="round" stroke-linejoin="round"/>
</svg>
