<svg width="18" height="18" viewBox="0 0 18 18" fill="none" xmlns="http://www.w3.org/2000/svg">
<path d="M13.5 2.81299H4.5C3.58594 2.81299 2.98828 3.30518 2.8125 4.21924L1.6875 9.56299V13.5005C1.6888 13.9476 1.86701 14.3761 2.18319 14.6923C2.49938 15.0085 2.92785 15.1867 3.375 15.188H14.625C15.0722 15.1867 15.5006 15.0085 15.8168 14.6923C16.133 14.3761 16.3112 13.9476 16.3125 13.5005V9.56299L15.1875 4.21924C15.0117 3.27002 14.3789 2.81299 13.5 2.81299Z" fill="#E6E6E6" stroke="#E6E6E6" stroke-width="1.5" stroke-linejoin="round"/>
<path d="M1.6875 9.56152H6.75" stroke="#E6E6E6" stroke-width="1.5" stroke-linecap="round" stroke-linejoin="round"/>
<path d="M11.25 9.56152H16.3125" stroke="#E6E6E6" stroke-width="1.5" stroke-linecap="round" stroke-linejoin="round"/>
<path d="M6.75 9.56152C6.75 10.1583 6.98705 10.7306 7.40901 11.1525C7.83097 11.5745 8.40326 11.8115 9 11.8115C9.59674 11.8115 10.169 11.5745 10.591 11.1525C11.0129 10.7306 11.25 10.1583 11.25 9.56152" fill="#E6E6E6"/>
<path d="M6.75 9.56152C6.75 10.1583 6.98705 10.7306 7.40901 11.1525C7.83097 11.5745 8.40326 11.8115 9 11.8115C9.59674 11.8115 10.169 11.5745 10.591 11.1525C11.0129 10.7306 11.25 10.1583 11.25 9.56152" stroke="#E6E6E6" stroke-width="1.5" stroke-linecap="round" stroke-linejoin="round"/>
<path d="M5.0625 5.06299H12.9375" stroke="#E6E6E6" stroke-width="1.5" stroke-linecap="round" stroke-linejoin="round"/>
<path d="M4.5 7.31201H13.5" stroke="#E6E6E6" stroke-width="1.5" stroke-linecap="round" stroke-linejoin="round"/>
</svg>
