<svg width="18" height="18" viewBox="0 0 18 18" fill="none" xmlns="http://www.w3.org/2000/svg">
<path d="M13.5 8.43701H3.375V4.78076C3.37611 4.40814 3.52463 4.0511 3.78811 3.78762C4.05159 3.52414 4.40863 3.37562 4.78125 3.37451H13.2187C13.5914 3.37562 13.9484 3.52414 14.2119 3.78762C14.4754 4.0511 14.6239 4.40814 14.625 4.78076V8.43701H13.5Z" fill="#E6E6E6" stroke="#E6E6E6" stroke-width="1.5" stroke-linecap="round" stroke-linejoin="round"/>
<path d="M1.6875 14.6245V10.687C1.68926 10.0908 1.92688 9.51954 2.34846 9.09797C2.77003 8.67639 3.3413 8.43877 3.9375 8.43701H14.0625C14.6587 8.43877 15.23 8.67639 15.6515 9.09797C16.0731 9.51954 16.3107 10.0908 16.3125 10.687V14.6245" fill="#E6E6E6"/>
<path d="M1.6875 14.6245V10.687C1.68926 10.0908 1.92688 9.51954 2.34846 9.09797C2.77003 8.67639 3.3413 8.43877 3.9375 8.43701H14.0625C14.6587 8.43877 15.23 8.67639 15.6515 9.09797C16.0731 9.51954 16.3107 10.0908 16.3125 10.687V14.6245" stroke="#E6E6E6" stroke-width="1.5" stroke-linecap="round" stroke-linejoin="round"/>
<path d="M1.6875 14.6245V14.3433C1.68815 14.1197 1.77725 13.9055 1.93535 13.7474C2.09344 13.5893 2.30767 13.5002 2.53125 13.4995H15.4687C15.6923 13.5002 15.9066 13.5893 16.0647 13.7474C16.2227 13.9055 16.3118 14.1197 16.3125 14.3433V14.6245" fill="#E6E6E6"/>
<path d="M1.6875 14.6245V14.3433C1.68815 14.1197 1.77725 13.9055 1.93535 13.7474C2.09344 13.5893 2.30767 13.5002 2.53125 13.4995H15.4687C15.6923 13.5002 15.9066 13.5893 16.0647 13.7474C16.2227 13.9055 16.3118 14.1197 16.3125 14.3433V14.6245" stroke="#E6E6E6" stroke-width="1.5" stroke-linecap="round" stroke-linejoin="round"/>
<path d="M3.9375 8.43701V7.87451C3.93833 7.5764 4.05713 7.29074 4.26793 7.07994C4.47872 6.86914 4.76439 6.75035 5.0625 6.74951H7.875C8.17311 6.75035 8.45877 6.86914 8.66957 7.07994C8.88037 7.29074 8.99916 7.5764 9 7.87451V8.43701" fill="#E6E6E6"/>
<path d="M3.9375 8.43701V7.87451C3.93833 7.5764 4.05713 7.29074 4.26793 7.07994C4.47872 6.86914 4.76439 6.75035 5.0625 6.74951H7.875C8.17311 6.75035 8.45877 6.86914 8.66957 7.07994C8.88037 7.29074 8.99916 7.5764 9 7.87451V8.43701" stroke="#E6E6E6" stroke-width="1.5" stroke-linecap="round" stroke-linejoin="round"/>
<path d="M9 8.43701V7.87451C9.00083 7.5764 9.11963 7.29074 9.33043 7.07994C9.54122 6.86914 9.82689 6.75035 10.125 6.74951H12.9375C13.2356 6.75035 13.5213 6.86914 13.7321 7.07994C13.9429 7.29074 14.0617 7.5764 14.0625 7.87451V8.43701" fill="#E6E6E6"/>
<path d="M9 8.43701V7.87451C9.00083 7.5764 9.11963 7.29074 9.33043 7.07994C9.54122 6.86914 9.82689 6.75035 10.125 6.74951H12.9375C13.2356 6.75035 13.5213 6.86914 13.7321 7.07994C13.9429 7.29074 14.0617 7.5764 14.0625 7.87451V8.43701" stroke="#E6E6E6" stroke-width="1.5" stroke-linecap="round" stroke-linejoin="round"/>
</svg>
